<mxfile host="Electron" modified="2023-09-10T14:32:23.664Z" agent="Mozilla/5.0 (Macintosh; Intel Mac OS X 10_15_7) AppleWebKit/537.36 (KHTML, like Gecko) draw.io/21.6.8 Chrome/114.0.5735.289 Electron/25.5.0 Safari/537.36" etag="bbms_2WSD_kZ11HiSWs5" version="21.6.8" type="device">
  <diagram id="jB8xL6SdTs6wcw6VgCI7" name="Page-1">
    <mxGraphModel dx="954" dy="703" grid="1" gridSize="10" guides="1" tooltips="1" connect="1" arrows="1" fold="1" page="1" pageScale="1" pageWidth="850" pageHeight="1100" math="0" shadow="0">
      <root>
        <mxCell id="0" />
        <mxCell id="1" parent="0" />
        <mxCell id="hMChsU17eB1XGhFgMdmK-2" value="&amp;nbsp;kubectl delete ns minio (by accidental)" style="rounded=0;whiteSpace=wrap;html=1;" parent="1" vertex="1">
          <mxGeometry x="184" y="170" width="340" height="60" as="geometry" />
        </mxCell>
        <mxCell id="hMChsU17eB1XGhFgMdmK-5" value="" style="endArrow=classic;html=1;exitX=0.5;exitY=1;exitDx=0;exitDy=0;entryX=0.5;entryY=0;entryDx=0;entryDy=0;strokeWidth=3;" parent="1" source="hMChsU17eB1XGhFgMdmK-2" target="hMChsU17eB1XGhFgMdmK-23" edge="1">
          <mxGeometry width="50" height="50" relative="1" as="geometry">
            <mxPoint x="410" y="340" as="sourcePoint" />
            <mxPoint x="360" y="210" as="targetPoint" />
          </mxGeometry>
        </mxCell>
        <mxCell id="hMChsU17eB1XGhFgMdmK-9" value="" style="endArrow=classic;html=1;startSize=6;endSize=6;strokeWidth=3;entryX=0.25;entryY=0;entryDx=0;entryDy=0;strokeColor=#FF3333;exitX=0.5;exitY=1;exitDx=0;exitDy=0;" parent="1" source="hMChsU17eB1XGhFgMdmK-23" edge="1">
          <mxGeometry width="50" height="50" relative="1" as="geometry">
            <mxPoint x="170" y="361" as="sourcePoint" />
            <mxPoint x="169.5" y="550" as="targetPoint" />
          </mxGeometry>
        </mxCell>
        <mxCell id="hMChsU17eB1XGhFgMdmK-25" value="delete minio namespace" style="edgeLabel;html=1;align=center;verticalAlign=middle;resizable=0;points=[];" parent="hMChsU17eB1XGhFgMdmK-9" vertex="1" connectable="0">
          <mxGeometry x="-0.0389" y="-4" relative="1" as="geometry">
            <mxPoint y="-1" as="offset" />
          </mxGeometry>
        </mxCell>
        <mxCell id="hMChsU17eB1XGhFgMdmK-10" value="" style="endArrow=classic;html=1;startSize=6;endSize=6;strokeWidth=3;strokeColor=#FF3333;exitX=0.5;exitY=1;exitDx=0;exitDy=0;" parent="1" source="hMChsU17eB1XGhFgMdmK-23" edge="1">
          <mxGeometry width="50" height="50" relative="1" as="geometry">
            <mxPoint x="529.5" y="352" as="sourcePoint" />
            <mxPoint x="530" y="550" as="targetPoint" />
          </mxGeometry>
        </mxCell>
        <mxCell id="hMChsU17eB1XGhFgMdmK-27" value="delete minio namespace" style="edgeLabel;html=1;align=center;verticalAlign=middle;resizable=0;points=[];" parent="hMChsU17eB1XGhFgMdmK-10" vertex="1" connectable="0">
          <mxGeometry x="-0.164" relative="1" as="geometry">
            <mxPoint as="offset" />
          </mxGeometry>
        </mxCell>
        <mxCell id="hMChsU17eB1XGhFgMdmK-13" value="User delete the minio namespace by accidental, it could lead to serious problems." style="text;html=1;strokeColor=none;fillColor=none;align=center;verticalAlign=middle;whiteSpace=wrap;rounded=0;fontColor=#FF3333;" parent="1" vertex="1">
          <mxGeometry x="540" y="410" width="230" height="110" as="geometry" />
        </mxCell>
        <mxCell id="hMChsU17eB1XGhFgMdmK-14" value="" style="group" parent="1" vertex="1" connectable="0">
          <mxGeometry x="100" y="540" width="140" height="130" as="geometry" />
        </mxCell>
        <mxCell id="hMChsU17eB1XGhFgMdmK-15" value="" style="html=1;dashed=0;whitespace=wrap;fillColor=#2875E2;strokeColor=#ffffff;points=[[0.005,0.63,0],[0.1,0.2,0],[0.9,0.2,0],[0.5,0,0],[0.995,0.63,0],[0.72,0.99,0],[0.5,1,0],[0.28,0.99,0]];shape=mxgraph.kubernetes.icon;prIcon=api" parent="hMChsU17eB1XGhFgMdmK-14" vertex="1">
          <mxGeometry x="19.180000000000007" width="96.23" height="120" as="geometry" />
        </mxCell>
        <mxCell id="hMChsU17eB1XGhFgMdmK-16" value="member cluster 1" style="text;html=1;align=center;verticalAlign=middle;resizable=0;points=[];autosize=1;strokeColor=none;" parent="hMChsU17eB1XGhFgMdmK-14" vertex="1">
          <mxGeometry x="15" y="110" width="110" height="20" as="geometry" />
        </mxCell>
        <mxCell id="hMChsU17eB1XGhFgMdmK-17" value="" style="group" parent="1" vertex="1" connectable="0">
          <mxGeometry x="284" y="540" width="140" height="130" as="geometry" />
        </mxCell>
        <mxCell id="hMChsU17eB1XGhFgMdmK-18" value="" style="html=1;dashed=0;whitespace=wrap;fillColor=#2875E2;strokeColor=#ffffff;points=[[0.005,0.63,0],[0.1,0.2,0],[0.9,0.2,0],[0.5,0,0],[0.995,0.63,0],[0.72,0.99,0],[0.5,1,0],[0.28,0.99,0]];shape=mxgraph.kubernetes.icon;prIcon=api" parent="hMChsU17eB1XGhFgMdmK-17" vertex="1">
          <mxGeometry x="19.180000000000007" width="96.23" height="120" as="geometry" />
        </mxCell>
        <mxCell id="hMChsU17eB1XGhFgMdmK-19" value="member cluster 2" style="text;html=1;align=center;verticalAlign=middle;resizable=0;points=[];autosize=1;strokeColor=none;" parent="hMChsU17eB1XGhFgMdmK-17" vertex="1">
          <mxGeometry x="15" y="110" width="110" height="20" as="geometry" />
        </mxCell>
        <mxCell id="hMChsU17eB1XGhFgMdmK-20" value="" style="group" parent="1" vertex="1" connectable="0">
          <mxGeometry x="460" y="540" width="140" height="130" as="geometry" />
        </mxCell>
        <mxCell id="hMChsU17eB1XGhFgMdmK-21" value="" style="html=1;dashed=0;whitespace=wrap;fillColor=#2875E2;strokeColor=#ffffff;points=[[0.005,0.63,0],[0.1,0.2,0],[0.9,0.2,0],[0.5,0,0],[0.995,0.63,0],[0.72,0.99,0],[0.5,1,0],[0.28,0.99,0]];shape=mxgraph.kubernetes.icon;prIcon=api" parent="hMChsU17eB1XGhFgMdmK-20" vertex="1">
          <mxGeometry x="19.180000000000007" width="96.23" height="120" as="geometry" />
        </mxCell>
        <mxCell id="hMChsU17eB1XGhFgMdmK-22" value="member cluster 3" style="text;html=1;align=center;verticalAlign=middle;resizable=0;points=[];autosize=1;strokeColor=none;" parent="hMChsU17eB1XGhFgMdmK-20" vertex="1">
          <mxGeometry x="15" y="110" width="110" height="20" as="geometry" />
        </mxCell>
        <mxCell id="hMChsU17eB1XGhFgMdmK-23" value="Karmada API server" style="shape=image;verticalLabelPosition=bottom;labelBackgroundColor=#ffffff;verticalAlign=top;aspect=fixed;imageAspect=0;image=data:image/png,iVBORw0KGgoAAAANSUhEUgAAAboAAAFdCAYAAAB1tqi/AAAACXBIWXMAABYlAAAWJQFJUiTwAAAgAElEQVR4nO2dPVYdR7e/23e94V3r+J+RIWdk4BGARyDpDADJCaGMA1IJKVVgrFCJkQZwQCO41gxEpuyKjOyKEei/utkNzeF8dHXXx95Vz7OW12v5RXCo7qrf3rv2x08/fvyoAOAhWwfVz/V//Pq++s7yANjlv3h2ACs5bwUPAGyC0AEsQTy5b1VV/YvYAdgFoQNYzXFVVduIHYBdEDqAFXx933h0n0XsTlgrAHsgdADrOZWveLZ1cPvvAGAEsi4BerB10NzXTeQrP3x9Xz1n3QBsgEcH0I/zzlfh2QEYAqED6Mf8/Vwtdnh1AAYgdAnQk62DJjFlc+6rf//6Hu8OQDN4dAD9WZR1+c/WQfWENQTQC0IH0J/zJV95unVQ7bCOADpB6AB6IjV1nxZ89UQKyh+xlgD6QOgA3Fjm1U3oiwmgE4QOwI1lQle1rcJYTwBdIHQADkij50Xhy5ZtauwAdIHQAbizyqurpMbumHUF0AFCB+DOOqGreUVBOYAOEDoAR3qEL1tOKDsASA9CBzCMPl7dhDl2AOlB6ACG0UfoqlbsWGOAdCB0AANwCF9WZGICpAWhAxhOX6+uYtoBQDoQOoDhuIYk/yE5BSA+CB3AQKT35YXj3yY5BSAyCB3AOFzCl1XbE5M1B4gHQgcwjiGitbt1sHC2HQAEgAnjACPZOmgyMCcDvsvTr+/x7gBCg0cHMJ6hYnXKDDuA8CB0AOMZWhDOfR1ABBA6gPGM6XyyzX0dQFi4owPwwNZB9UUGrw6F+zqAQODRAfhhbD/LU+rrAMKA0AH4YazQcV8HEAiEDsAPPiYU1PV1hzwPAL9wRwfgCQ/3dC2/fn3ffC8A8AAeHYA/fM2d474OwCMIHYA/fAld7RUe81wA/IDQAfjDZ7jxj62Dao9nAzAe7ugAPLJ10Izu2fT0HS+rqtqRaeYAMBA8OgC/+ApfViKYhDABRoLQAfjFd7YkIUyAkSB0AH4JURZAFibACBA6AI98fe81dNlCCBNgBAgdgH8uAnxPQpgAA0HoAPwTqqsJIUyAASB0AP4JJXR1CJNemACOIHQA/gnZp/LV1kG1wzMD6A9Cp5CNN4SnLBMoIaULE8nnqPcM+waWgdDp5HjjDVa7cUIkpLQwzmeOq5dN95hTxA4WgdDppLbY/0XsTPMt8Ic/JjHlAV9k37AucA+ETiFXL5tD8gtiZ5rQ8+QmhDAfcCqTHxA7uAdCp5dTOcwQO5vEGJz6jNq6O8RA/ITYwTwInVKuXjZCd43YmSV06LIFr+4+p/Kn7c6/Q+EgdLo5l0834aLdFl/fR/HoarZJTLnj6mWzZy7lPzzeeIPYAUKnna61TjjGHiEzL7uQmHKf886fniF2gNAp5upl4xVcdj7htud5ZxCWWANTJzR9vsd8OLcWO7zegkHo9DO/abexUM0Q0yipmz4/Mr5eXpCklHlv+q+NN9Vzo78SjASh08/5gk9IOMYGsTy6Ft6JOxatxT8bb8hSLRGETjlLrNNKxA4LVTexElJadik3uGWZ6J+TwVweCJ0NlqWQ1xbqk9IXRzGxSgy64NXdtQT7tOD/mojYkbxTEAidDRaFL1tOsVB18vV9EqHb3DrA0xeW7ZtNMpjLAqEzwArrtMJCVc9lgg9IucENqwzEbYrtywGhs8OqTbtJ2YFaknh1DGhdayBWcs9NWUYBIHR2WCdklB3oJIXQ1Rzi1TWsMhBrXnHPnT8InRFWZF92IRNTH6mEboJX17BO6CruufMHobNFH4+NWiFoOSy9iFzCl+sMRHrJZg5CZ4s+1mlFcooqUt6d0hrshj4GItMOMgahM4SEL/tk8U1ITgHhWelencNeeExySp4gdPbo69XVySmkT6cn1R1dl6IP7wXN0VfxitB/fiB09nDx1P4goywtiYrG58Grc9s3hP4zA6EzhgyWdKG+ZC/9kAPu6lz2zcTx60E5CJ1NPjt8ajZtelJ0R5mndK/O9c56l/u6fEDobOIqXNzXpUVD+LIq2avrWWYwD/d1mYDQ2WRIRiX3dVC6VzckssF9XQYgdAaRLLLrAZ+cotg0xB7AuoqSu6UMMRAn1NfZB6Gzy9BNy31dfGIPYF3F81J7YF69HFxbWtfX0U7NMAidXYYenrts2qIpvQemSyJXl2Oyl+2C0NllTOcTNm3ZlDzZYKiBSDTEMAidUUaEYSo2bfHUz7/UxKQx+2abkgObIHS2GRqGqdi0UdF0R9dS6rMf2wP2FSN97IHQ2WbsAcqmjYOmrMuWza2D8mYXSj3d2AJ+sjCNgdDZxseEAjZtuZQ6pHfsviEaYgyEzjY+QmLbZGEWy+7WQZEevY99QzTEEAidYWQ+3ZDC8XnIwiyXEo0cX3emtNUzAkJnHx+blu4P5fKstFKDkRnLXahJNUJQodt4h2sfAZ+bttQ7m9Ip8bB2bfC8jGyjITmd36E9up833uEpBMZnZ/wTemEWSYkGjq99M8k4hHmYi9gFFbqrF423sYfYBcVnjdaEAZ1FUmKpgc998zjTcT51U4l/cxC7GHd0tbXzDLELg0wy8MkfzOAqEoRuHNlNBrl60Qjd9xzELobQtQJXix3eQhh83Te0kE3mka/vvd2jhmS3sFl1voVuM9O7zlOJ9JgWu+BCd/WisQg+yB9fbbwj4SEAvidYU1tXJsU8cynN8c1hhokpraPS9MfdeGfTa41VXtBtIPwPYuedEL0Uj0lM8YOhouzS9qXvSEh2iSlXLxqD4JP8cVM8O3PnQhShk1hvt7/cP5QeeCWEdUpiij+sHAyTwpJSQuybHBNTuo7KtseSpmjELBifHwuTRTaPEkJs2EoSU+iYUhYlje8JNVUitzvu87kOTNvWkgtjCt38wpiO+Soj5BgYsmXL4nFBSSmhDMTtnJovSJ7FvKNSJxeaEfRoQnf1ojmM58djmI35akJGj4Ril3KD4iglfBlK6KoMmy8sGtT8h5V8i9i9Lhct1jbp7F4YM4R1HTyfskDoxjPJKYtV8iwWNZA3kW8RW+iWhcGosdNNVqEYWMtmCeN7ApUYdDkswKurJCqnOtwdVeiWhC9b6hq7ki7CfRM6EwpDpCxKqakbO218FbmVGywTOvX5FinG9CxbrKppo0MmplY2KSIvilKMztBe3bOMMpdXGdOqr6C0Cd1ExI7kFHdCZl62UEReDnVNXQliFzKRqyWLaIhkX35a8SX1FZRKYzi60MlEg1VTsbdJaR9EjA2b1QV7RKxmrZYgdDEMxFK8upq/Nt7pe99TTRhft1iPtVoGiokhdFWGF+ywnOKmjwcklzvuVRG526/RFpVLJXR9Fusv7uv6E2BczzLw6soid68u9B1dSxZenfS+XNcjdNLzjI+GVo+uhc4pOsGrKweEzh+5eHV9zu9dTSVjSYROrII+ab2b3Nc5seru0yd4dW5YtuQfE770Ri53dX0dlVda7utSeXSVg2vLfV1/YoUvK7w6J6wfbjl7dTE9uioTr86lZldFVC6l0Lks1jH3deqYFDi/rFSyFboI3VHmMe/VSZlB31l+Ew1RuZRC5+J9qFgseACedj+se76EL/1SmleXPCqXTOgc7ulatumHuZbY1ukmPTB7sW3gM66DCRb+yOGuzrXl4HHKfpgpPbpqwGKpudxUSmyhq+iBWQw539OF7He5DOsGouvZnTQql1rohiRP0CJMF7VXRzPuJWQU8iMhxS+mk7nkns7VQNhNFcK05tFVUnKAF6EL7uqWk0sSVd37kmiKP3JI5hpyficJYSYVOhnbM4Q/yMJURT2FnOeRP3jufrFuIA45v5OEMFN7dNWIydhkYeoCr24xORkACJ1frIf9hzoq0UOYGoRu6GKRhamLZxSQLySnNaknj+fShV8LZg1EmUQzlOOYuRYahG7MRfCh9hHukQk9ZXwdeHUPye39xKvzy67xUoO+hePzRA1hWvboKgrJ1UFN3UNyEzoSUvxjOTI1xlF5HKtcLLnQjXR/K4n3YmXqgFKDh+QWzn2s4DPkxhPDYf+x/XWjOCoaPLrKQ8HmCbV1asCru08OXVHuQZmBdyaGQ8JjhW4zRq6FFqEbW7C5yf2QGh5nMopkNBn3h8Rr94/V88tHsX3wXAstQudjvAyJKXrAq7sh19pCPDr/bFusRR1RC91lEvqeUovQfffwPYIvFvQGobshV8Nrm2kGQbDq1fnoFfosZGKKFqHzlRYfdLGgNySl3JBzhIF95h+re8ZXr9BgjkpOHl1LyV6dptAHQpdv6LJC6IIwMTr2ypfQBcugVyF0nuK8LSWXG2gKJ9EpJb/Sgi4IXRgsnl0+pz+cePxet2jx6HwTZLHAmdK9ul0FnyEU3NOFwWLWsk+hq8sNvHu1moRuaHPnRQRZLHCm2JKPQnpC4tWFwZqB6Huen/frp1w9uooMTBVsF1xTh9DBUKwZ6T5zLKoQReSahM7nPV2FV6eGUsOXJYhALr+jNqPElIHoOcei5dBntytNQufbKqgK9Oo0bo5SjY0SPLpc2pttKvgM85Te6Wnicw1yDl1WBXp1Gg/XUsOXRUxcp+9lMKxFQnwUjc/jzavLOXTZwl1dekoMX2bXzHkJCF0YNo21BPOdkFKJV+fFUck9dFlxV6eCotZ/66AMb04w/bsqjzZwbnkKX+YeumwpxavTeuiUFr4sSeise3Sa38vS61ArX45KKUK3WUi3lImCz7CMkjZtSUI3KaRmMAWbhgzEEKHLltGOSgl3dC2lZzGlpqQwTElCVxn/fbV3d7FiIIYUutGOihqhu3oR7I6uZTfnyQYGLq63C+p9mXPrr0VYFjrtn517uhtGOSqlhC5bcn5pLIhI9uHLwhJRWsi8DEdJBuIqakdl8N4qTeieZTyFHKHTQYlCh0cXFpJSbhjs1ZUmdFXGXp2FDUtbrDyxnJCCgWiHZ0MLyEsUOpJS0lEPlsxdCEr06CrDv7cFgSY0fMeg87tEoZtkWkBuZTNka53KfLZSOqLMY1XoNPa5nKcEA7Evg87uEoWuIpMpKTlv2JIPI3NCZ6yJAUJ3w6BSg1KFbjfDpBQrKe05Z5GVfBhZ3E+WPjP3dHc4OyqlCl3FXV1Sct20pd7PVUZDtpaEjjKDOx67OiolC102h63B+H2unk9pheL3MDiyx5oXSvjyDqfzu2Shy6n/pTVLL7sNy1y2BmvvoTUPnHfsDqeIXMlCV2Xk1VnbsJaa1faFOxR77yEGol02XTqllC50gwsQlWHxbii3TcshZO89tBZq5p7uPr2TUtQIXcIsyBwscYveUTbCUHj9XBcz76HhiAIG1R32hC7hJslB6CwesjllKHL43GDpPbQqdFr3TYr1nPTNsyg9dFlJqqrZcICB8TzLyCkMw/2cYKjnpVXjROvnVu2oIHQ3WD6oLCd15OIJ4dHdYeV9tGogFl3CsgBzQpdyg1gWOkakJETmz1nolxgLK8/UrIFI38t79ApfInQ3WA5fWn7pc9iwHDr3sbKPLCcPaTQmUn4mU0KXGqteHR5dWrifu4/6Z5qBR6RxjScJf/ba54lHd4e5l19SpFO+YGOZWC4cl7IC7kzuY8Gjs25gldxTdRFri8cRujssWuY5vPCWfwe8uYdYeJ7W942qsOvGOxVOwsqaOkKXd0yUPDAXELq0IHQPsRBhML9vSEh5wMr10CR0GkJA1g4ukjnSwmGzAMlEVYnUbubQxUbTGmu4fthe1V0Lj+4+1g6uHO6HTFrXWweNUWT5fjQkmu/pcrnfQugesvT8ViF0ikKGK60CTRjuiDKP1YQUwpbL0fw8c/HCNa0xQmcQKxshp7AZQpcXCF14NEVztDzvpXtSi9BpevkQuviY+l0IW5omm3IQRVEdLZ9jsqzMQIvQaYrpI3TxsebR4c2tRuW7mWGmopZ9o8noW/iMtQidpvumTe33dGLJ5eRRIHQQg9yELvm5qbAkC6FzQPuGyG3DmgknbR00hamELVejNesSj84/2p61TqGTZsraDg6ELjKGZtPhza1HXZ2avF+5tWvTIHTanJSF93QaPDo6cbvzWPnnG4L6cgnpbZnj2pdAjsX9GoRb47oidD3Z1jq2J+PWPxbu6fDmeiJGgSay3DcKIiEa9+2DZ43QLUfr58r1sLUgdIcKPoMVtO2fXPdNsnUWZ0Dj0GE8Oge0WoBs2ARsHTRCnEOPxOKQzju5ToFP6dFp3bMPInIahE7r4aFO6NiwScGbs0vOIeeUYqM5HHxvXZIKnfKxOBqtFTZsOlbOu4IHaApF57xvUq6z5j17T1tSe3SaF2qiMCEl5w2rtjaNll+DUCF0mZYVdEHoFqPHozOQCaXmQRawYTVPZMCbs0vumbJJjHHpHqX5GuWeAYBHtxpNQlxCaru6ezpJQqF2zi6575tUOQ7az+5765JM6AxYBBX3DNHRWGKAN2cUiYJgpIRBfV1iNwckpUdnoYBThdVS0IbVKHRkWw5Dw94posA/URMJC+f37XmC0K1GS+kDHTkSQAPnUWgIQ7NvAiBJehZqShG6vigZ2VPKhtUW9ydsaZTCwpaxjQpzMzuTCJ2R+7mWpEInReJs2MhsHTSbJOss18wpyZuLbSBaWdvb8ySVR2fpJUxtvRB+SQPenG14fuGw4tHdhldTCV2uHfhDUNKGVRG6lJKCZwo+CgxAoiAleePRIiHGonG3V0+phM5SKC6ZKEsBdUmNhLUkfuAN2Ka05xfTQLQWYUojdBvvzC1UynsjDtzIyBw1Sgpsw74JB0LXE2sLldKjKm7DKhgkSUmBH5IkcUlNWa4TPpIiZQXWQsIInWY23hR74Ka+p8Ob80MqsSnRm4tlHFo8u+ML3ca75hAzd3gnGidE+CUyUiCON2AUiQaUmEQUK+qE0PWEw7sHBWaNaeG49AUwDudLICRsabGet/F2Ywud1bBl7PsGwmeRwZvLAvZNOKye3Y23G03oJPxn9SCJJnQSfinZMk2VjII3ZxiSUIJjOrcipkdHWKEfpU+zjp6MgjeXBXhzgTActmyoi8ZjCp1liyDm4YtnER/W3DCF9YNdSODp/NYz5eMI3cY786nyUcJphF/igzcXjOuIPwtDJewZZd5bjuXRUTvXDzZsfFjzMHyJ8UPkTpvzJRDSK9J8G8LgQicLZT2sENyjo6QgPnhzWXBIJ5ug5HD3uRfDo8shCSWGRYNnER/W3D4koYQliyRChE4B4s0xFiYieHP2KbhNXhQyyK24JajQyaQCDpP14FlERCYUsOb24RmGJRsnJbRHR1hhDXhzSTjEALONeHM8w0BIbkUuOQM/BxO6zBYqJIR2I8K8uWzAmwtLTuu7E9Kjy+pFbEeye/2ebzh0E3DCvY5t8ObCIp1QsirZCCJ0OS5UoH6Xxxy68dg6IEwckX8D/ii8ubBkV7IRyqOjtmUNcjf3h+oPmR+npS+AdfDmopBdlMm70Ik3RzhuPVilEdk6aNqrcWdsH/ZNQHIqKegSwqMrvfv+Wsi0TALenHE23pAtG4EsDYkQQofFtR7WKCJbB816c0DG5ZvPnyaJW+yb5YzuLSreXJb7xKvQ5bxQvpAJBXhzkZAEFELp8fEqdNz7r+bqZfXdw7fJ1pDw7dFhca2HNVqN72w9ygmMI6F+jJWA5O6keBM6vLn1bLxp7i9JiIiEJKAUPZAzEyjDCU/WBrhPjw5PZT0n2j9gZpCAkg4v8+hkcjah/oCU4KR4EbqNd/lf9l+9GBdS23hDQkRMSEBJy9f3Xu6MKozDXoyd5p69kzJa6KibWw+tvpwYfUBKAsqruB8bfCPF4YT61zPYe954V0bJhg+Pjmyo9ZAQ0ZOrl15CXoQs03Ix9qdTThAecVJKWON/RwmdNDrGcl4B5QRx2TpoDC+8gLT4SnUn9ByWYpyUsR4d8fP1sEaRkJAlXoBxJAGFPrD9ca5ZLM1JGSx0G++KSt0edNkrCSjb/j9OtlyO/MVOCRGrYGwtJMahG0OK84ta4zEeXUkL5XxvRJHrIAZ30yBkmQfSz5Ln6IaTYVGYk9IwSOgkU6ckT+V8wN/Bu4gEIUt1DDJYxDjkObrx+eqlswddWrKWezJKQZk6LRdXL9y8V6zSwQz16DAqdDH0OZKd7EZ9pfLc5W+UUPO8iCEeXWmHituLRFr0GJwPSEKWKnHOupT2eLRrc+Pk6mX/PVNylryT0G28K+5lfH31wvl+Du8iElsHTXYeRoUyvr532zNiHFL76MbF1Uvnd7/UNf7SW+gkZFlSAkodsnR6kaSTA1bpcIbcNWBU6GJIhjLP0R2nRDfJqygy8nH1ovru4tGVFNt1j33fXKSTFj2O3iEv6WVJ6YY+XL05Qpbu/O2SgCIhy6IjH72ETtJRSyrgPCZkGZ3Xfdt/yfgdOvLopLexIsYhIUs3LgeIVslJPp+rPkInIcuSXsbPZFlGp/d9w9ZB8z4OKfeA8LhGQjAO3XnuMk1cQpbFe8x9PLqTwkKWT1z+grQr+ivcR8oe1zXncNTL877jeaRrEMahG68JWTrTRIlWCp1kWZbUkPh5fXHZ94vJFvPC874p0lJKULx1qpS/v77v52mLcUjo2Y2hWZalG4XNeb5U6MQaKOkQ//vqhXNI7ISEiFHUl+q91lxKCfCcdXLR13MQ45DQsxtDC8PxmKU2d5VHV5I1UJcSuKXr3pQSMH5nOLWF2mvNuZdTzbVLyFLOFcbvuHHsMqdRkgfxmG9YLnSFWQNDSgl2KCUYheu93DmHo1oO+xaIS9IWoWc3Pl297H/WFJg8uI7Fd3QFWgPPXUoJOvdypce+x/DE4V6OEIxePnx93+9QJWlrEJeuRjge833anIt7Qif3ciWFiLiXi0/vzLGtg8brIwSjk4u+3Tm4lxvEtRiELqUEx3jM9/jc/mHeozvnXm45EnrhXm44nxzq5XYIwailOYQd7uUIPbtzyL3caG7fz1uh23jXHCqleCr1Rt1z+QuEXkZz0TcMI8knhIf1Uotcr9DzxpsmAkLo2Y0PVy/7G3kFRuL6cmsoNEK38a64DMI9x3q5RwMaDsMd144dHUoyuqzx59f3/faCZCaX1DrQB3U2cu97OUk+KSkS58Kd0InL+4+Jj+2H3wckn/AijeO5Qx/LE+4Z1FInn/TKACQzeRCXrpEmcgZWcht1+I/EMX/T+Tm9831As+bKdSQG3OO7y12DGBWEYXTiunec2ulB9c0x+aQN8XOXvYDuWf/Tjx8/NH02AAAArzhNGAcAALAGQgcAAFmD0AEAQNYgdAAAkDUIHQAAZM1/prOm3uVnHvNDZtPq3+lH1ic0s/2bAuSnb5vC/EdZ/7L58u3s6K5uafrRuR4M3Phe/Xez3jus22Lq87v9P9o6uu5Bvtf530eF96j7acH6tMLXHso7FJOP4rpd3/qgFLHr0r6PrLdu/pwrEF92ruzIc6TIeRx/z6bV4XR2b51/7qwve+Xm/L75lz51dNNZ85K2/5TSt+5iNu1nLU0/3r5UO4WtkQ8+z/bdrP+nb283dPcfDs60/HZ25NYmT6Il3X3DM+zP77P99YXi01lzNnXP71Icl8+z6d254lwwPp01h8yedD14krHF8GE2dZ4FdYuEbto1onP7cv6e7Y/vPCPi193QHJpx+X9nR/27eixi+rGYs8UHv8723bs8ifA9kQbrOe+RxuNt/zCqM4qIXrtouXkxf86mfnr1icf3XP5B9O7TyzJ1RUKg7aFJ78ywXJ4d+b9bnX68FTxEb47Z/l1YbigieodyLuW2vr/PpnfnircWYLJoxxlNQfh1Nh3UF3Ml4umVNi1iFb/M9vuNfBmKeHu5GmQa+HR2FLav5fTjraHI8xsQ7l/HdNas7XFGhvi989t7r8tcBG82HW8xrULCNIfyT6nW6vVsP25Gq3h6eNd+eX121G+g7ljkXq/0Achewv2LyEXw5s/vYE2dRfBOjVpg9y4yQ1K44Hm3TF14+hYvwRPOiShjkeuAnCJILgQJ93cRwTsxeiY9OL+DFYzPptU3+WG/yZwlS0TbtLP96vtsv9mw9cZ9Len2pZB0mO3ZUXV6dnT7jn4uaN194z3Ev4463D3bbw7jX+rQacpfPgHB943cb9Vn0t8aF2AND9YneGcUKdrbMbZg0Q/gjuDVa/Uh9s9PhIqp7bU3guAN5mJstuUYRPCeyLO7SLYK8bgMfafdMptW3yVz0Zqz8sDwitICbG7BLHgs0S3Ulo6latETdiXZOi9iTvBKODR9oOIZ1t11ZvuNkfhn5lGR+N7znbNixQCP79F1kQV7pPwQqQvFk1moLbJx23BmjlzUXqzG30sEr97YvxcWSh6CCq+8Zbbf3CvtZOyZJ1lvcVaeG9gTC8/v6E2dZcE0WwfaNu5xpt6dqnVeRH2HZ/ieIhaqvPLqLiqyJ95dbiTdN3J3t6f4PFq4PsmmF4h1oPFFVHcAS9Pjncwu3dULXXUjdt/Pjm7D7oQz73N9dqRP6FrEu/s1IyPxekg3FN9IfdqO0v2gS+iqmwU7EVdYDbNpda7p87RIssqTjKxUtQfkIjrhzFxDyUNQb6yIMORiJKpZbwkP7ikUO31CV925wlrETn1cX6zUp8bvjqJljvlGCqNLSBTqgwljpWMkWg9B67pW0Sd2S/MrghWMuzKdNS9i6tlK/3ZnGGlGOkQEbbsUkG+hC15DI23FgnSnMMRpdwadBaR/ptUZbqcaDUTpeaxhL3xZFpFTI3QAAAAhSB66BAAACAlCBwAAWYPQAQBA1iB0AACQNf/R/MtNZ00mz18RftSn2dRsBuM9ZHzJF63jNXxMRrbA07dNVmmuI2SCD1qNzfRjtLNmCB+k/60pprMmQzTGXLu157dqj04KymPUaKgsEh+CpB9rTXsvZjLA2VFzMOU6hcJECY4LUp9KW0K/xBLntetjIXQZY7GyEbrqZtOeKu3gkdU6ryNjscvyOYrXpLGtlcn1lprkGO//2vVRL3TSVy1kR4NPGqYV+EaaQWvzoLLzBNaRoa6QcegAAAfDSURBVNhdWisSd+SJsq5Daqd89OQw8HrW3VDWvo9WklGOAy5Wzl6Gpk17qaEhbSIOM2oInbWxIqF/TfdhpjsIiRNxHPBH9FofE0IXeLGyFTqxBLUkDRQVtuwiE7g1NsAdQvbPcbbf/I5a+mKaNywk1yJUb9h8hK4Kt1hZhi27yIgfDZu2uLBlFxE7bWGxIZTyHI8VNO7OKQoSwlHpfX5bq6M78fz9SvEyUm/aa7GSi0butvYMr8FnEezskWhI6hBmPtngN1NqfJ9BvdfHmtCderSIr2Xxs0fBpi1e5FpkUKmqGYwOFPUcFURDcjuffHp1Tue3KaETN9XXwy9x06YaPonQdTg7at5hi5mYJT7HkIlwq8gxeevc41o6vYsWW4D5Cl8W4c3NkaKQnLDlYqxlYuZeVrAQiYak2Df5FeXfOCq+zgInHTAndFIzMbY+7NLKgFWfSOp07EJyRG4Bctf13FBySrHPURowxL7jztUQ9+GoXEh9dW+sNnUe+xL4TmqxxEnkwxWhW4Lc14WsMfJJiRGQLjG9uku5asgOEaixRoPz+W1V6MYensVuWgnFxBJ6wpZrODtqnoX2HqCXIsrFIu9xrOeU+54Z8/tdD/n7JoVOYr1D7zeyr53rQSyvDpHrh/YQZtE1kB1iGYi5G+Jjfr/zIee35Xl0Qw/R0kMwMb264te6D5LkoTmEicFy59WFvqvLvlWehC+HGnaDzi3V8+jWMOgQnU3ZtEJwEcr1niEEdQjz6dvqZ6WfjT1zx/PARf+lhIjrO89Hjn/nu2sSSstPP378GPL3AAAATGA5dAkAALAWhA4AALIGoQMAgKxB6AAAIGssZ11W01mTpfZ/Pb7091ImFQxh+rHJjtz19O0+zPZVTWg2ydO3TVbaXwk/+/XZkc4sUA1MPzYZg//r8aP8WtoE/umsKal51eNLfx2abdli2qPrWTh4icitxWf6eMnt1XzicyTVECgpWIH0jfXVlPuiNJFz4PNYkasyCV2uOwwQufX4qndjw3pCmj6nNBrYN+tJ0ok/I/qcO14aKeQgdKsO1ms8jPWIOPnwHlhrv6Raz7q3JcX+6/EhdIN6NxbCZ19TZnJPRjmhr2Vvxm42NqxnxKtLMaCV59gDTwbiubTkg4d4a4uXs9DhzbkxNuR4yoYNQop3mH3Tn7H7xsqYpth48+aqzIUOb86NsS8Vh2MAZDxOzEnkFyVOEh/BmH3zWZJa4CFeDYBchQ5vzpGRSSQf2LBBiZkYwr5xY4zQsdaL8erNVRkLHd7cMIYOliRDLyyx1pd7VneGGniXDCVeivdwbo5Chzc3nCGb9jPjeMIiSSmfIvyoc/lZ0BOJZAxJSOFubjGffHtzVSZCNz/TCG9uOEOEDm8uDjGsf57lMFzD/njOyzkM8U1zELrNzr/jzY3DdcPW4RcOxziEPhipnRuOq2F9QoZyw/wA2w+zaZi7ftNCJ70uuxzizY3Cde0Iv0QiQvgSA3E4rgYia/2Q61DeXJWBR7fT+Xd6Wo7HZcNe481FJ6THxbOMwwe8uVu653fQKyfrQte9n6Nj/kgcNyBWaXxChS8/kIQyChcDhCjIHe35XTspQdclF4/Oe90FrIS70ARIIfdlgJ/Ms4wD9ab32ZY/BXdSTM+j6wgd3pw/fuvxnb4TfknGk6ryOydOuq/AcL703DesszCd3SaiBCknmOenHz9+hP4ZwZjOqvrDvw7t9gIAgD+msybxpD63d0JlWnYxG7oUi+CSsAsAgDn2JAElSijX8h1dvVDPKScAADDHzzEjcZaF7hsJKAAAtpjOmtyKYDVzizB9RwcAALAO61mX4JnpxyYUPFnwXf+c7XMfqoGnbxtr+K+RH+UX5s75YfqxuUb5nyXf7BdKCtKT8+BVGMYikbtE5FQxNk39AyIXBermlIDQQR8o39DF2MOTdl/hCdq7EdxA6OCW6ceFhchMKFDGSG/sM1MKvDPfhb9iQoEuEDrosrNgNeg6o5OhrcDwzsNDizxlIHTQZd6jY3q4XoZ4dcycC8O8gXiIN6cLhA66PNiwrE5W4M2FoWsgEupXCEIHXbpjj+qMMZrQ6sV5GvzZEQdwIHY735ZQv0IQOujSenRkjOmHafAKmH68ZxwS6lcKQgdd2vlQx9wxZAXeXDi64X68OaUgdNAg3R1qLigOzw68uXC0Qvea4nC9IHTQ0m5YQpZ5gTcXFsaFGYBel9CyJwko3DHkBd5cWOpElKeE+nWD0EHLzpKCcbAL3lxAJNz/abZfnWf7S2YCoUuoN+wOCShZgjcXlj1C/TZA6KDmO0Wu2YE3F55TElBswOBVAIM8fdvUbz1a8cm/MYoH4AaEDgAAsobQJQAAZA1CBwAAWYPQAQBA1lBHB2CQp28XTrX+cnZEiQjAPAgdgDGevm3mn/3Pgk/9y4CpBgDZQ+gSwB6LOti8ppwAYDEIHYA95uvnrmkqDLAchA7AHvNCd8jdHMByEDoAe3QTUS5o9QWwGoQOwB5dj46mwgBrQOgADCEZl5vyiT+dHTE/EGAdCB2ALdqw5TXeHEA/EDoAW7SlBSeUEwD0A6EDsMWezJpjqCpAT+iMAmCL3aqqfuOZAfQHjw7ACE/fVk+qqvpAAgqAGwgdgB12SEABcAehA7DDCR1QABypqur/A/HVs9ZxqoWmAAAAAElFTkSuQmCC;" parent="1" vertex="1">
          <mxGeometry x="303.34" y="300" width="101.32" height="80" as="geometry" />
        </mxCell>
        <mxCell id="hMChsU17eB1XGhFgMdmK-24" value="" style="endArrow=classic;html=1;startSize=6;endSize=6;strokeWidth=3;strokeColor=#FF3333;exitX=0.5;exitY=1;exitDx=0;exitDy=0;" parent="1" edge="1">
          <mxGeometry width="50" height="50" relative="1" as="geometry">
            <mxPoint x="354.98" y="390" as="sourcePoint" />
            <mxPoint x="353.01272727272726" y="550" as="targetPoint" />
          </mxGeometry>
        </mxCell>
        <mxCell id="hMChsU17eB1XGhFgMdmK-26" value="delete minio namespace" style="edgeLabel;html=1;align=center;verticalAlign=middle;resizable=0;points=[];rotation=0;" parent="hMChsU17eB1XGhFgMdmK-24" vertex="1" connectable="0">
          <mxGeometry x="0.1189" y="-3" relative="1" as="geometry">
            <mxPoint as="offset" />
          </mxGeometry>
        </mxCell>
        <mxCell id="ot96ZYlaXThipG4WEPOz-1" value="&lt;font color=&quot;#0000ff&quot;&gt;We can prevent this operation, if user set the namespace is protected.&lt;/font&gt;" style="text;html=1;strokeColor=none;fillColor=none;align=center;verticalAlign=middle;whiteSpace=wrap;rounded=0;fontColor=#FF3333;" vertex="1" parent="1">
          <mxGeometry x="550" y="200" width="230" height="110" as="geometry" />
        </mxCell>
        <mxCell id="ot96ZYlaXThipG4WEPOz-2" value="" style="endArrow=classic;html=1;rounded=0;exitX=0;exitY=0.5;exitDx=0;exitDy=0;" edge="1" parent="1" source="ot96ZYlaXThipG4WEPOz-1">
          <mxGeometry width="50" height="50" relative="1" as="geometry">
            <mxPoint x="510" y="330" as="sourcePoint" />
            <mxPoint x="360" y="260" as="targetPoint" />
          </mxGeometry>
        </mxCell>
      </root>
    </mxGraphModel>
  </diagram>
</mxfile>
